<?xml version="1.0" encoding="utf-8"?>
<!-- Generator: Adobe Illustrator 27.3.1, SVG Export Plug-In . SVG Version: 6.00 Build 0)  -->
<svg version="1.1" id="Layer_1" xmlns="http://www.w3.org/2000/svg" xmlns:xlink="http://www.w3.org/1999/xlink" x="0px" y="0px"
	 viewBox="0 0 489.4 551" style="enable-background:new 0 0 489.4 551;" xml:space="preserve">
<style type="text/css">
	.st0{fill:#1A56DB;}
</style>
<g>
	<path class="st0" d="M485.1,124.7L290.2,12.2c-28.2-16.3-62.9-16.3-91.1,0L45.5,100.9C17.4,117.2,0,147.2,0,179.8v177.4
		c0,32.5,17.4,62.6,45.5,78.9L68,452.2v-223c0-37.7,20.3-72.9,53-91.7l93-53.7l29.7,17.2l-107.8,62.3c-23.5,13.6-38.1,38.9-38.1,66
		v240.1l53.8,31.1V279c0-37.7,20.3-72.9,53-91.7l94.3-54.4l29.7,17.2l-109.1,63c-23.5,13.6-38.1,38.9-38.1,66v238.6l63.4,33.4
		l0.1-0.1l74.8-43.2l105.6-61l64.2-37V127.2l0,0h0L485.1,124.7 M319.6,341.4c0-32.5-3.1-51.2,25-67.4l80.5-46.1v47.3l-105.6,61.3
		V341.4z M425.2,378.7L319.6,440v3.6c0-32.5-3.1-50.8,25-67l80.5-46.5V378.7z"/>
</g>
</svg>
